<?xml version="1.0" encoding="utf-8"?>
<!-- Generator: Adobe Illustrator 22.0.2, SVG Export Plug-In . SVG Version: 6.00 Build 0)  -->
<svg version="1.1" id="Layer_1" xmlns="http://www.w3.org/2000/svg" xmlns:xlink="http://www.w3.org/1999/xlink" x="0px" y="0px"
	 viewBox="0 0 388.7 106.5" style="enable-background:new 0 0 388.7 106.5;" xml:space="preserve">
<style type="text/css">
	.st0{fill:#9FCD51;}
</style>
<g>
	<path class="st0" d="M106.5,106.5h-9.7V9.7h0H0V0h106.5V106.5z M68,38.5H9.7v58.3H68V38.5 M77.7,28.8v77.7H0V28.8H77.7L77.7,28.8z"
		/>
	<g>
		<g>
			<g>
				<path class="st0" d="M153.8,36.4h-14l-3.1,10.4H129l14.6-44.9h6.5l14.3,44.9h-7.6L153.8,36.4z M141.6,30h10.3l-5.1-17.6
					L141.6,30z"/>
				<path class="st0" d="M184.7,41.5c0.9,0,1.8-0.1,2.6-0.4c0.9-0.3,1.6-0.7,2.3-1.2c0.7-0.5,1.2-1.1,1.6-1.8
					c0.4-0.7,0.6-1.5,0.5-2.3h7c0,1.6-0.3,3.1-1.1,4.5c-0.8,1.4-1.8,2.6-3.1,3.7c-1.3,1-2.8,1.9-4.5,2.5s-3.5,0.9-5.3,0.9
					c-2.6,0-4.8-0.4-6.8-1.3c-1.9-0.9-3.5-2.1-4.8-3.6c-1.3-1.5-2.3-3.3-2.9-5.3c-0.6-2-1-4.2-1-6.5v-1.1c0-2.3,0.3-4.4,1-6.5
					c0.6-2,1.6-3.8,2.9-5.3s2.9-2.7,4.8-3.6c1.9-0.9,4.2-1.3,6.7-1.3c2,0,3.9,0.3,5.6,0.9c1.7,0.6,3.2,1.5,4.4,2.6
					c1.2,1.1,2.2,2.4,2.9,4c0.7,1.5,1,3.2,1,5.1h-7c0-0.9-0.1-1.8-0.5-2.6c-0.3-0.8-0.8-1.5-1.5-2.1c-0.6-0.6-1.4-1.1-2.3-1.4
					c-0.9-0.3-1.8-0.5-2.8-0.5c-1.5,0-2.8,0.3-3.9,0.9c-1,0.6-1.9,1.4-2.5,2.5c-0.6,1-1.1,2.2-1.3,3.5c-0.3,1.3-0.4,2.6-0.4,3.9v1.1
					c0,1.4,0.1,2.7,0.4,4c0.3,1.3,0.7,2.5,1.3,3.5c0.6,1,1.4,1.8,2.5,2.5C181.8,41.2,183.1,41.5,184.7,41.5z"/>
				<path class="st0" d="M222.6,41.5c0.9,0,1.8-0.1,2.6-0.4c0.9-0.3,1.6-0.7,2.3-1.2c0.7-0.5,1.2-1.1,1.6-1.8
					c0.4-0.7,0.6-1.5,0.5-2.3h7c0,1.6-0.3,3.1-1.1,4.5c-0.8,1.4-1.8,2.6-3.1,3.7c-1.3,1-2.8,1.9-4.5,2.5s-3.5,0.9-5.3,0.9
					c-2.6,0-4.8-0.4-6.8-1.3c-1.9-0.9-3.5-2.1-4.8-3.6c-1.3-1.5-2.3-3.3-2.9-5.3c-0.6-2-1-4.2-1-6.5v-1.1c0-2.3,0.3-4.4,1-6.5
					c0.6-2,1.6-3.8,2.9-5.3c1.3-1.5,2.9-2.7,4.8-3.6c1.9-0.9,4.2-1.3,6.7-1.3c2,0,3.9,0.3,5.6,0.9c1.7,0.6,3.2,1.5,4.4,2.6
					c1.2,1.1,2.2,2.4,2.9,4c0.7,1.5,1,3.2,1,5.1h-7c0-0.9-0.1-1.8-0.5-2.6c-0.3-0.8-0.8-1.5-1.5-2.1c-0.6-0.6-1.4-1.1-2.3-1.4
					c-0.9-0.3-1.8-0.5-2.8-0.5c-1.5,0-2.8,0.3-3.9,0.9c-1,0.6-1.9,1.4-2.5,2.5c-0.6,1-1.1,2.2-1.3,3.5c-0.3,1.3-0.4,2.6-0.4,3.9v1.1
					c0,1.4,0.1,2.7,0.4,4c0.3,1.3,0.7,2.5,1.3,3.5c0.6,1,1.4,1.8,2.5,2.5C219.7,41.2,221,41.5,222.6,41.5z"/>
				<path class="st0" d="M267.3,42.2c-1.1,1.6-2.5,2.9-4.1,3.8c-1.6,0.9-3.4,1.4-5.4,1.4c-1.7,0-3.3-0.3-4.7-0.8
					c-1.4-0.5-2.7-1.4-3.7-2.5c-1-1.2-1.8-2.6-2.4-4.4c-0.6-1.8-0.8-4-0.8-6.5V13.4h7.4v19.8c0,1.6,0.1,2.9,0.4,4
					c0.2,1.1,0.6,1.9,1.1,2.5c0.5,0.6,1.1,1.1,1.9,1.3c0.7,0.3,1.6,0.4,2.7,0.4c2,0,3.6-0.4,4.8-1.2c1.2-0.8,2.1-1.8,2.7-3.1V13.4
					h7.4v33.4h-6.7L267.3,42.2z"/>
				<path class="st0" d="M298.6,5.3v8.1h12.6v5.5h-12.6v16c0,1.3,0.1,2.3,0.4,3.1c0.3,0.8,0.7,1.5,1.2,2s1.2,0.8,1.9,1
					c0.7,0.2,1.5,0.3,2.4,0.3c0.6,0,1.3,0,2-0.1c0.7-0.1,1.4-0.2,2-0.2c0.6-0.1,1.2-0.2,1.8-0.3c0.5-0.1,1-0.2,1.4-0.3l0.8,5.1
					c-0.5,0.3-1.2,0.6-1.9,0.8c-0.8,0.3-1.6,0.5-2.5,0.6c-0.9,0.2-1.8,0.3-2.8,0.4c-1,0.1-1.9,0.1-2.8,0.1c-1.7,0-3.2-0.2-4.6-0.7
					c-1.4-0.5-2.6-1.2-3.6-2.2c-1-1-1.8-2.2-2.3-3.8c-0.6-1.5-0.8-3.4-0.8-5.5V18.9h-8.1v-5.5h8.1V5.3H298.6z"/>
				<path class="st0" d="M343,46.8c-0.2-0.4-0.4-0.9-0.5-1.5c-0.1-0.6-0.3-1.1-0.4-1.8c-0.5,0.5-1.1,1-1.7,1.5
					c-0.6,0.5-1.4,0.9-2.2,1.2c-0.8,0.3-1.6,0.6-2.6,0.8c-0.9,0.2-1.9,0.3-2.9,0.3c-1.8,0-3.4-0.3-4.8-0.8c-1.4-0.5-2.7-1.2-3.7-2.1
					c-1-0.9-1.8-1.9-2.4-3.2c-0.6-1.2-0.8-2.5-0.8-3.9c0-3.6,1.3-6.3,4-8.2c2.7-1.9,6.5-2.8,11.5-2.8h5.4v-2.2
					c0-1.8-0.6-3.2-1.8-4.2c-1.2-1-2.9-1.6-5.1-1.6c-1,0-1.9,0.1-2.6,0.4c-0.7,0.2-1.4,0.6-1.9,1c-0.5,0.4-0.9,0.9-1.1,1.5
					c-0.2,0.6-0.4,1.2-0.4,1.8h-7.4c0-1.3,0.3-2.6,0.9-3.8c0.6-1.2,1.5-2.3,2.7-3.3c1.2-1,2.6-1.7,4.3-2.3c1.7-0.6,3.6-0.9,5.8-0.9
					c2,0,3.8,0.2,5.5,0.7c1.7,0.5,3.1,1.2,4.4,2.2c1.2,1,2.2,2.1,2.9,3.6c0.7,1.4,1,3.1,1,5v14.9c0,1.5,0.1,2.8,0.3,4
					c0.2,1.2,0.5,2.2,0.9,3.1v0.5H343z M334.1,41.5c0.9,0,1.8-0.1,2.7-0.4c0.8-0.2,1.6-0.5,2.3-0.9c0.7-0.4,1.2-0.8,1.7-1.3
					c0.5-0.5,0.9-1,1.2-1.5v-6.3h-4.7c-3,0-5.2,0.5-6.6,1.4c-1.4,1-2.1,2.3-2.1,4.1c0,0.7,0.1,1.3,0.3,1.9c0.2,0.6,0.6,1.1,1,1.5
					c0.5,0.4,1,0.8,1.8,1C332.3,41.3,333.2,41.5,334.1,41.5z"/>
				<path class="st0" d="M382.6,12.8c0.6,0,1.2,0,1.8,0.1c0.6,0,1.2,0.1,1.7,0.2c0.5,0.1,1,0.2,1.5,0.3c0.5,0.1,0.8,0.2,1.1,0.3
					l-1,7.3c-2.3-0.5-4.5-0.8-6.7-0.8c-2.5,0-4.5,0.5-6,1.5c-1.5,1-2.6,2.5-3.3,4.3v20.9h-7.4V13.4h6.9l0.3,5.2
					c1.4-1.8,3-3.2,4.8-4.3C378.2,13.3,380.3,12.8,382.6,12.8z"/>
				<path class="st0" d="M132,104V59h14.3c2.2,0,4.2,0.3,6.1,0.7c1.9,0.5,3.5,1.2,4.9,2.2c1.4,1,2.5,2.2,3.3,3.8
					c0.8,1.5,1.2,3.3,1.2,5.4c0,2.2-0.6,4.1-1.9,5.7c-1.2,1.6-2.9,2.8-4.9,3.7c1.3,0.4,2.4,0.8,3.3,1.5c1,0.6,1.8,1.4,2.5,2.3
					c0.7,0.9,1.2,1.9,1.5,3c0.3,1.1,0.5,2.3,0.5,3.5c0,2.1-0.4,4-1.2,5.6c-0.8,1.6-1.9,3-3.3,4.1c-1.4,1.1-3,1.9-4.9,2.5
					c-1.9,0.6-4,0.9-6.2,0.9H132z M139.4,77.9h7.1c1.1,0,2.1-0.2,3.1-0.4c1-0.3,1.8-0.7,2.5-1.2c0.7-0.5,1.3-1.2,1.7-2
					c0.4-0.8,0.6-1.7,0.6-2.7c0-1.1-0.2-2.1-0.6-2.9c-0.4-0.8-0.9-1.5-1.7-2c-0.7-0.5-1.5-0.9-2.5-1.1c-1-0.2-2-0.4-3.2-0.4h-7V77.9
					z M139.4,83.6v14.3h8.1c1.2,0,2.2-0.2,3.2-0.5c1-0.3,1.8-0.8,2.5-1.4c0.7-0.6,1.2-1.3,1.7-2.2c0.4-0.9,0.6-1.8,0.6-2.9
					c0-1.1-0.2-2.1-0.5-3c-0.3-0.9-0.9-1.7-1.5-2.3c-0.7-0.6-1.5-1.1-2.4-1.4c-0.9-0.3-2-0.5-3.2-0.5H139.4z"/>
				<path class="st0" d="M171.7,70.6h17.8v27.3h9.9v6.1h-27.7v-6.1h10.4V76.7h-10.4V70.6z M181.4,61.9c0-1.2,0.4-2.1,1.1-2.9
					c0.7-0.8,1.8-1.1,3.1-1.1c1.4,0,2.4,0.4,3.2,1.1c0.8,0.7,1.1,1.7,1.1,2.9c0,1.2-0.4,2.1-1.1,2.9c-0.7,0.8-1.8,1.1-3.2,1.1
					c-1.3,0-2.4-0.4-3.1-1.1C181.8,64,181.4,63.1,181.4,61.9z"/>
				<path class="st0" d="M206.6,87c0-2.4,0.4-4.6,1.1-6.7c0.7-2.1,1.7-3.9,3.1-5.4c1.3-1.5,2.9-2.7,4.9-3.6c1.9-0.9,4.1-1.3,6.5-1.3
					c2.4,0,4.6,0.4,6.6,1.3c1.9,0.9,3.5,2.1,4.9,3.6c1.3,1.5,2.3,3.3,3,5.4c0.7,2.1,1,4.3,1,6.7v0.6c0,2.4-0.3,4.7-1,6.8
					c-0.7,2.1-1.7,3.9-3,5.4c-1.3,1.5-2.9,2.7-4.9,3.6s-4.1,1.3-6.5,1.3c-2.5,0-4.6-0.4-6.6-1.3c-1.9-0.9-3.5-2.1-4.9-3.6
					c-1.3-1.5-2.3-3.3-3.1-5.4c-0.7-2.1-1.1-4.3-1.1-6.8V87z M214,87.6c0,1.5,0.2,3,0.5,4.3c0.3,1.3,0.8,2.5,1.5,3.5
					c0.7,1,1.5,1.8,2.5,2.4c1,0.6,2.3,0.9,3.7,0.9c1.4,0,2.6-0.3,3.6-0.9c1-0.6,1.9-1.4,2.5-2.4c0.7-1,1.2-2.2,1.5-3.5
					c0.3-1.3,0.5-2.8,0.5-4.3V87c0-1.5-0.2-2.9-0.5-4.2c-0.3-1.3-0.8-2.5-1.5-3.5c-0.7-1-1.5-1.8-2.5-2.4c-1-0.6-2.2-0.9-3.7-0.9
					c-1.4,0-2.6,0.3-3.6,0.9c-1,0.6-1.9,1.4-2.5,2.4c-0.7,1-1.1,2.2-1.5,3.5c-0.3,1.3-0.5,2.7-0.5,4.2V87.6z"/>
				<path class="st0" d="M260.7,62.5v8.1h12.6v5.5h-12.6v16c0,1.3,0.1,2.3,0.4,3.1c0.3,0.8,0.7,1.5,1.2,2s1.2,0.8,1.9,1
					c0.7,0.2,1.5,0.3,2.4,0.3c0.6,0,1.3,0,2-0.1c0.7-0.1,1.4-0.2,2-0.2c0.6-0.1,1.2-0.2,1.8-0.3c0.5-0.1,1-0.2,1.4-0.3l0.8,5.1
					c-0.5,0.3-1.2,0.6-1.9,0.8c-0.8,0.3-1.6,0.5-2.5,0.6s-1.8,0.3-2.8,0.4c-1,0.1-1.9,0.1-2.8,0.1c-1.7,0-3.2-0.2-4.6-0.7
					c-1.4-0.5-2.6-1.2-3.6-2.2c-1-1-1.8-2.2-2.3-3.8c-0.6-1.5-0.8-3.4-0.8-5.5V76.1h-8.1v-5.5h8.1v-8.1H260.7z"/>
				<path class="st0" d="M299.4,104.6c-2.5,0-4.7-0.4-6.8-1.2c-2-0.8-3.8-2-5.2-3.4c-1.4-1.4-2.6-3.1-3.4-5.1
					c-0.8-2-1.2-4.1-1.2-6.4v-1.3c0-2.7,0.4-5,1.3-7.2c0.9-2.1,2-3.9,3.4-5.4c1.4-1.5,3.1-2.7,5-3.5c1.9-0.8,3.9-1.2,6-1.2
					c2.4,0,4.6,0.4,6.4,1.2c1.9,0.8,3.4,2,4.6,3.4c1.2,1.5,2.2,3.2,2.8,5.2c0.6,2,1,4.2,1,6.6v3.1h-23.1c0.1,1.3,0.4,2.5,1,3.6
					c0.5,1.1,1.2,2.1,2,2.9c0.8,0.8,1.8,1.5,2.9,1.9c1.1,0.5,2.3,0.7,3.7,0.7c1.9,0,3.6-0.4,5.2-1.1c1.6-0.7,2.9-1.8,3.8-3.1l4,3.8
					c-0.5,0.8-1.2,1.6-2.1,2.3c-0.8,0.7-1.8,1.4-3,2c-1.1,0.6-2.4,1.1-3.8,1.4C302.6,104.4,301,104.6,299.4,104.6z M298.5,75.9
					c-1,0-2,0.2-2.9,0.6s-1.7,0.9-2.4,1.6c-0.7,0.7-1.3,1.6-1.8,2.6c-0.5,1-0.8,2.2-1,3.5h15.6v-0.6c-0.1-1-0.3-1.9-0.6-2.9
					c-0.3-0.9-0.8-1.7-1.4-2.5c-0.6-0.7-1.4-1.3-2.3-1.7C300.8,76.1,299.7,75.9,298.5,75.9z"/>
				<path class="st0" d="M336.3,98.7c0.9,0,1.8-0.1,2.6-0.4c0.9-0.3,1.6-0.7,2.3-1.2c0.7-0.5,1.2-1.1,1.6-1.8
					c0.4-0.7,0.6-1.5,0.5-2.3h7c0,1.6-0.3,3.1-1.1,4.5c-0.8,1.4-1.8,2.6-3.1,3.7c-1.3,1-2.8,1.9-4.5,2.5c-1.7,0.6-3.5,0.9-5.3,0.9
					c-2.6,0-4.8-0.4-6.8-1.3c-1.9-0.9-3.5-2.1-4.8-3.6c-1.3-1.5-2.3-3.3-2.9-5.3c-0.6-2-1-4.2-1-6.5v-1.1c0-2.3,0.3-4.4,1-6.5
					c0.6-2,1.6-3.8,2.9-5.3c1.3-1.5,2.9-2.7,4.8-3.6c1.9-0.9,4.2-1.3,6.7-1.3c2,0,3.9,0.3,5.6,0.9c1.7,0.6,3.2,1.5,4.4,2.6
					c1.2,1.1,2.2,2.4,2.9,4c0.7,1.5,1,3.2,1,5.1h-7c0-0.9-0.1-1.8-0.5-2.6c-0.3-0.8-0.8-1.5-1.5-2.1c-0.6-0.6-1.4-1.1-2.3-1.4
					s-1.8-0.5-2.8-0.5c-1.5,0-2.8,0.3-3.9,0.9c-1,0.6-1.9,1.4-2.5,2.5c-0.6,1-1.1,2.2-1.3,3.5c-0.3,1.3-0.4,2.6-0.4,3.9v1.1
					c0,1.4,0.1,2.7,0.4,4c0.3,1.3,0.7,2.5,1.3,3.5c0.6,1,1.4,1.8,2.5,2.5C333.5,98.4,334.8,98.7,336.3,98.7z"/>
				<path class="st0" d="M367,75.2c1.2-1.6,2.6-2.9,4.2-3.9c1.7-0.9,3.5-1.4,5.5-1.4c1.7,0,3.3,0.3,4.8,0.8c1.5,0.5,2.7,1.3,3.7,2.4
					c1,1.1,1.8,2.5,2.4,4.2c0.6,1.7,0.9,3.7,0.9,6.1V104h-7.4V83.3c0-1.3-0.2-2.4-0.5-3.3c-0.3-0.9-0.8-1.7-1.4-2.3
					c-0.6-0.6-1.3-1-2.1-1.3c-0.8-0.3-1.8-0.4-2.9-0.4c-1.6,0-3,0.3-4.3,1c-1.2,0.7-2.2,1.6-3,2.7V104h-7.4V56.6h7.4V75.2z"/>
			</g>
		</g>
	</g>
</g>
</svg>
